<svg viewBox="0 0 80 80" fill="none" xmlns="http://www.w3.org/2000/svg">
  <!-- Barras de comparación (3 híbridos, vista limpia) -->
  <!-- Eje Y -->
  <line x1="14" y1="12" x2="14" y2="62" stroke="#4a6a9a" stroke-width="1.5" stroke-linecap="round"/>
  <!-- Eje X -->
  <line x1="14" y1="62" x2="68" y2="62" stroke="#4a6a9a" stroke-width="1.5" stroke-linecap="round"/>
  <!-- Barra 1 — alta (ganadora) -->
  <rect x="20" y="24" width="12" height="38" rx="3" fill="#e2b04a"/>
  <!-- Brillo barra 1 -->
  <rect x="20" y="24" width="4" height="38" rx="3" fill="white" opacity="0.12"/>
  <!-- Barra 2 -->
  <rect x="38" y="34" width="12" height="28" rx="3" fill="#3dbb6e"/>
  <rect x="38" y="34" width="4" height="28" rx="3" fill="white" opacity="0.12"/>
  <!-- Barra 3 -->
  <rect x="56" y="42" width="12" height="20" rx="3" fill="#4a9ee2"/>
  <rect x="56" y="42" width="4" height="20" rx="3" fill="white" opacity="0.12"/>
  <!-- Línea de comparación horizontal (promedio) -->
  <line x1="14" y1="44" x2="68" y2="44" stroke="#e2b04a" stroke-width="1" stroke-dasharray="3 3" opacity="0.5"/>
  <!-- Estrella / trofeo sobre barra ganadora -->
  <polygon points="26,18 27.5,22 31.5,22 28.5,24.5 29.5,28.5 26,26 22.5,28.5 23.5,24.5 20.5,22 24.5,22"
           fill="#e2b04a"/>
  <!-- Ticks eje Y -->
  <line x1="12" y1="44" x2="15" y2="44" stroke="#4a6a9a" stroke-width="1"/>
  <line x1="12" y1="34" x2="15" y2="34" stroke="#4a6a9a" stroke-width="1"/>
  <line x1="12" y1="24" x2="15" y2="24" stroke="#4a6a9a" stroke-width="1"/>
</svg>
