<svg viewBox="0 0 200 200" fill="none" xmlns="http://www.w3.org/2000/svg">
  <rect width="200" height="200" rx="38" fill="#0d1b35"/>
  <!-- Tallo -->
  <line x1="100" y1="175" x2="100" y2="40" stroke="#e2b04a" stroke-width="3.5" stroke-linecap="round"/>
  <!-- Granos - pares simétricos, de abajo hacia arriba -->
  <!-- Par 1 -->
  <ellipse cx="84" cy="148" rx="14" ry="9" fill="#e2b04a" transform="rotate(-35 84 148)"/>
  <ellipse cx="116" cy="148" rx="14" ry="9" fill="#e2b04a" transform="rotate(35 116 148)"/>
  <!-- Par 2 -->
  <ellipse cx="80" cy="128" rx="14" ry="9" fill="#e2b04a" transform="rotate(-35 80 128)"/>
  <ellipse cx="120" cy="128" rx="14" ry="9" fill="#e2b04a" transform="rotate(35 120 128)"/>
  <!-- Par 3 -->
  <ellipse cx="77" cy="108" rx="14" ry="9" fill="#e2b04a" transform="rotate(-35 77 108)"/>
  <ellipse cx="123" cy="108" rx="14" ry="9" fill="#e2b04a" transform="rotate(35 123 108)"/>
  <!-- Par 4 -->
  <ellipse cx="78" cy="88" rx="13" ry="8" fill="#e2b04a" transform="rotate(-35 78 88)"/>
  <ellipse cx="122" cy="88" rx="13" ry="8" fill="#e2b04a" transform="rotate(35 122 88)"/>
  <!-- Par 5 -->
  <ellipse cx="82" cy="70" rx="11" ry="7" fill="#e2b04a" transform="rotate(-35 82 70)"/>
  <ellipse cx="118" cy="70" rx="11" ry="7" fill="#e2b04a" transform="rotate(35 118 70)"/>
  <!-- Punta -->
  <ellipse cx="100" cy="48" rx="8" ry="14" fill="#e2b04a"/>
  <!-- Bigotes del grano punta -->
  <line x1="100" y1="40" x2="92" y2="30" stroke="#3dbb6e" stroke-width="2" stroke-linecap="round"/>
  <line x1="100" y1="40" x2="108" y2="30" stroke="#3dbb6e" stroke-width="2" stroke-linecap="round"/>
  <!-- Hoja lateral -->
  <path d="M100 140 C100 140 75 130 68 115 C75 125 100 130 100 140Z" fill="#3dbb6e"/>
  <path d="M100 115 C100 115 125 105 132 90 C125 100 100 105 100 115Z" fill="#3dbb6e"/>
  <!-- Tag IA pequeño -->
  <text x="100" y="192" font-family="Arial, sans-serif" font-size="13" font-weight="bold"
        text-anchor="middle" fill="#e2b04a" letter-spacing="2">I.Ag</text>
</svg>
