<svg viewBox="0 0 200 200" fill="none" xmlns="http://www.w3.org/2000/svg">
  <rect width="200" height="200" rx="38" fill="#0d1b35"/>
  <!-- Red neuronal formando silueta de hoja -->
  <!-- Nodos -->
  <!-- Centro -->
  <circle cx="100" cy="100" r="7" fill="#e2b04a"/>
  <!-- Corona interior -->
  <circle cx="100" cy="68" r="5" fill="#e2b04a"/>
  <circle cx="130" cy="84" r="5" fill="#e2b04a"/>
  <circle cx="130" cy="116" r="5" fill="#e2b04a"/>
  <circle cx="100" cy="132" r="5" fill="#e2b04a"/>
  <circle cx="70" cy="116" r="5" fill="#e2b04a"/>
  <circle cx="70" cy="84" r="5" fill="#e2b04a"/>
  <!-- Corona exterior -->
  <circle cx="100" cy="38" r="5" fill="#3dbb6e"/>
  <circle cx="140" cy="55" r="5" fill="#3dbb6e"/>
  <circle cx="158" cy="95" r="5" fill="#3dbb6e"/>
  <circle cx="145" cy="135" r="5" fill="#3dbb6e"/>
  <circle cx="116" cy="158" r="5" fill="#3dbb6e"/>
  <circle cx="84" cy="158" r="5" fill="#3dbb6e"/>
  <circle cx="55" cy="135" r="5" fill="#3dbb6e"/>
  <circle cx="42" cy="95" r="5" fill="#3dbb6e"/>
  <circle cx="60" cy="55" r="5" fill="#3dbb6e"/>
  <!-- Tallo hacia abajo -->
  <circle cx="100" cy="178" r="4" fill="#3dbb6e"/>
  <!-- Conexiones centro → interior -->
  <line x1="100" y1="100" x2="100" y2="68" stroke="#e2b04a" stroke-width="1.5" opacity="0.6"/>
  <line x1="100" y1="100" x2="130" y2="84" stroke="#e2b04a" stroke-width="1.5" opacity="0.6"/>
  <line x1="100" y1="100" x2="130" y2="116" stroke="#e2b04a" stroke-width="1.5" opacity="0.6"/>
  <line x1="100" y1="100" x2="100" y2="132" stroke="#e2b04a" stroke-width="1.5" opacity="0.6"/>
  <line x1="100" y1="100" x2="70" y2="116" stroke="#e2b04a" stroke-width="1.5" opacity="0.6"/>
  <line x1="100" y1="100" x2="70" y2="84" stroke="#e2b04a" stroke-width="1.5" opacity="0.6"/>
  <!-- Conexiones interior → exterior -->
  <line x1="100" y1="68" x2="100" y2="38" stroke="#3dbb6e" stroke-width="1.5" opacity="0.5"/>
  <line x1="100" y1="68" x2="140" y2="55" stroke="#3dbb6e" stroke-width="1.5" opacity="0.5"/>
  <line x1="100" y1="68" x2="60" y2="55" stroke="#3dbb6e" stroke-width="1.5" opacity="0.5"/>
  <line x1="130" y1="84" x2="158" y2="95" stroke="#3dbb6e" stroke-width="1.5" opacity="0.5"/>
  <line x1="130" y1="84" x2="140" y2="55" stroke="#3dbb6e" stroke-width="1.5" opacity="0.5"/>
  <line x1="130" y1="116" x2="158" y2="95" stroke="#3dbb6e" stroke-width="1.5" opacity="0.5"/>
  <line x1="130" y1="116" x2="145" y2="135" stroke="#3dbb6e" stroke-width="1.5" opacity="0.5"/>
  <line x1="100" y1="132" x2="145" y2="135" stroke="#3dbb6e" stroke-width="1.5" opacity="0.5"/>
  <line x1="100" y1="132" x2="116" y2="158" stroke="#3dbb6e" stroke-width="1.5" opacity="0.5"/>
  <line x1="100" y1="132" x2="84" y2="158" stroke="#3dbb6e" stroke-width="1.5" opacity="0.5"/>
  <line x1="70" y1="116" x2="55" y2="135" stroke="#3dbb6e" stroke-width="1.5" opacity="0.5"/>
  <line x1="70" y1="116" x2="84" y2="158" stroke="#3dbb6e" stroke-width="1.5" opacity="0.5"/>
  <line x1="70" y1="84" x2="42" y2="95" stroke="#3dbb6e" stroke-width="1.5" opacity="0.5"/>
  <line x1="70" y1="84" x2="60" y2="55" stroke="#3dbb6e" stroke-width="1.5" opacity="0.5"/>
  <!-- Tallo -->
  <line x1="100" y1="132" x2="100" y2="178" stroke="#3dbb6e" stroke-width="2.5" stroke-linecap="round"/>
</svg>
