<svg viewBox="0 0 200 200" fill="none" xmlns="http://www.w3.org/2000/svg">
  <rect width="200" height="200" rx="38" fill="#0d1b35"/>
  <!-- Línea divisoria suelo -->
  <line x1="24" y1="105" x2="176" y2="105" stroke="#1e3a5a" stroke-width="1.5" stroke-dasharray="4 4"/>
  <!-- PARTE SUPERIOR: Planta -->
  <!-- Tallo -->
  <line x1="100" y1="105" x2="100" y2="42" stroke="#3dbb6e" stroke-width="3.5" stroke-linecap="round"/>
  <!-- Hojas -->
  <path d="M100 75 C100 75 78 65 72 50 C82 58 100 65 100 75Z" fill="#3dbb6e"/>
  <path d="M100 60 C100 60 122 50 128 35 C118 43 100 50 100 60Z" fill="#3dbb6e"/>
  <!-- Flor/brote arriba -->
  <circle cx="100" cy="36" r="10" fill="#e2b04a"/>
  <circle cx="88" cy="30" r="5" fill="#e2b04a"/>
  <circle cx="112" cy="30" r="5" fill="#e2b04a"/>
  <circle cx="100" cy="36" r="5" fill="#0d1b35"/>
  <!-- PARTE INFERIOR: Red de raíces = red neuronal -->
  <!-- Nodo raíz central -->
  <circle cx="100" cy="120" r="5" fill="#e2b04a"/>
  <!-- Ramificación 1er nivel -->
  <line x1="100" y1="120" x2="70" y2="138" stroke="#e2b04a" stroke-width="2" stroke-linecap="round"/>
  <line x1="100" y1="120" x2="130" y2="138" stroke="#e2b04a" stroke-width="2" stroke-linecap="round"/>
  <circle cx="70" cy="138" r="4" fill="#e2b04a"/>
  <circle cx="130" cy="138" r="4" fill="#e2b04a"/>
  <!-- Ramificación 2do nivel izquierda -->
  <line x1="70" y1="138" x2="48" y2="155" stroke="#e2b04a" stroke-width="1.5" stroke-linecap="round"/>
  <line x1="70" y1="138" x2="80" y2="158" stroke="#e2b04a" stroke-width="1.5" stroke-linecap="round"/>
  <circle cx="48" cy="155" r="3.5" fill="#3dbb6e"/>
  <circle cx="80" cy="158" r="3.5" fill="#3dbb6e"/>
  <!-- Ramificación 2do nivel derecha -->
  <line x1="130" y1="138" x2="120" y2="158" stroke="#e2b04a" stroke-width="1.5" stroke-linecap="round"/>
  <line x1="130" y1="138" x2="152" y2="155" stroke="#e2b04a" stroke-width="1.5" stroke-linecap="round"/>
  <circle cx="120" cy="158" r="3.5" fill="#3dbb6e"/>
  <circle cx="152" cy="155" r="3.5" fill="#3dbb6e"/>
  <!-- Ramificación 3er nivel -->
  <line x1="48" y1="155" x2="36" y2="172" stroke="#e2b04a" stroke-width="1" stroke-linecap="round" opacity="0.7"/>
  <line x1="48" y1="155" x2="58" y2="174" stroke="#e2b04a" stroke-width="1" stroke-linecap="round" opacity="0.7"/>
  <line x1="80" y1="158" x2="72" y2="174" stroke="#e2b04a" stroke-width="1" stroke-linecap="round" opacity="0.7"/>
  <line x1="80" y1="158" x2="90" y2="175" stroke="#e2b04a" stroke-width="1" stroke-linecap="round" opacity="0.7"/>
  <line x1="120" y1="158" x2="110" y2="175" stroke="#e2b04a" stroke-width="1" stroke-linecap="round" opacity="0.7"/>
  <line x1="120" y1="158" x2="128" y2="174" stroke="#e2b04a" stroke-width="1" stroke-linecap="round" opacity="0.7"/>
  <line x1="152" y1="155" x2="142" y2="174" stroke="#e2b04a" stroke-width="1" stroke-linecap="round" opacity="0.7"/>
  <line x1="152" y1="155" x2="164" y2="172" stroke="#e2b04a" stroke-width="1" stroke-linecap="round" opacity="0.7"/>
  <!-- Nodos finales -->
  <circle cx="36" cy="172" r="2.5" fill="#e2b04a" opacity="0.6"/>
  <circle cx="58" cy="174" r="2.5" fill="#e2b04a" opacity="0.6"/>
  <circle cx="72" cy="174" r="2.5" fill="#e2b04a" opacity="0.6"/>
  <circle cx="90" cy="175" r="2.5" fill="#e2b04a" opacity="0.6"/>
  <circle cx="110" cy="175" r="2.5" fill="#e2b04a" opacity="0.6"/>
  <circle cx="128" cy="174" r="2.5" fill="#e2b04a" opacity="0.6"/>
  <circle cx="142" cy="174" r="2.5" fill="#e2b04a" opacity="0.6"/>
  <circle cx="164" cy="172" r="2.5" fill="#e2b04a" opacity="0.6"/>
</svg>
