<svg viewBox="0 0 200 200" fill="none" xmlns="http://www.w3.org/2000/svg">
  <rect width="200" height="200" rx="38" fill="#0d1b35"/>
  <!-- Marco exterior ornamental -->
  <rect x="14" y="14" width="172" height="172" rx="26" fill="none" stroke="#e2b04a" stroke-width="1.5" opacity="0.4"/>
  <rect x="20" y="20" width="160" height="160" rx="22" fill="none" stroke="#e2b04a" stroke-width="1" opacity="0.2"/>
  <!-- Ornamentos esquinas -->
  <path d="M18 38 L18 22 L34 22" stroke="#e2b04a" stroke-width="2.5" stroke-linecap="round" fill="none"/>
  <path d="M182 38 L182 22 L166 22" stroke="#e2b04a" stroke-width="2.5" stroke-linecap="round" fill="none"/>
  <path d="M18 162 L18 178 L34 178" stroke="#e2b04a" stroke-width="2.5" stroke-linecap="round" fill="none"/>
  <path d="M182 162 L182 178 L166 178" stroke="#e2b04a" stroke-width="2.5" stroke-linecap="round" fill="none"/>
  <!-- Letras IA grandes como monograma -->
  <!-- I -->
  <rect x="38" y="56" width="10" height="80" rx="3" fill="#e2b04a"/>
  <rect x="30" y="52" width="26" height="10" rx="3" fill="#e2b04a"/>
  <rect x="30" y="126" width="26" height="10" rx="3" fill="#e2b04a"/>
  <!-- A -->
  <path d="M72 136 L97 52 L122 136" stroke="#e2b04a" stroke-width="11" stroke-linejoin="round" fill="none" stroke-linecap="round"/>
  <line x1="80" y1="108" x2="114" y2="108" stroke="#e2b04a" stroke-width="8" stroke-linecap="round"/>
  <!-- g pequeño -->
  <path d="M130 80 C130 70 138 64 146 64 C154 64 162 70 162 80 C162 90 154 96 146 96 C138 96 130 90 130 80Z" stroke="#e2b04a" stroke-width="4" fill="none"/>
  <path d="M162 80 L162 100 C162 110 154 116 146 116 C138 116 130 112 130 106" stroke="#e2b04a" stroke-width="4" fill="none" stroke-linecap="round"/>
  <!-- Línea divisoria ornamental -->
  <line x1="36" y1="148" x2="82" y2="148" stroke="#3dbb6e" stroke-width="1.5" opacity="0.8"/>
  <circle cx="100" cy="148" r="3" fill="#3dbb6e"/>
  <line x1="118" y1="148" x2="164" y2="148" stroke="#3dbb6e" stroke-width="1.5" opacity="0.8"/>
  <!-- Texto inferior -->
  <text x="100" y="166" font-family="Georgia, serif" font-size="11" text-anchor="middle"
        fill="#3dbb6e" letter-spacing="3" opacity="0.9">INTELIGENCIA</text>
  <text x="100" y="179" font-family="Georgia, serif" font-size="11" text-anchor="middle"
        fill="#3dbb6e" letter-spacing="3" opacity="0.9">AGRONÓMICA</text>
</svg>
